<svg data-v-423bf9ae="" xmlns="http://www.w3.org/2000/svg" viewBox="0 0 179.54649216516515 60" class="font"><!----><!----><!----><g data-v-423bf9ae="" id="ce655234-81d6-4987-a30b-437ec8668406" fill="#14D9D9" transform="matrix(4.535147549208299,0,0,4.535147549208299,-0.6349174587419242,-10.113378644398423)"><path d="M1.01 5.73L0.14 5.73L0.14 5.95L1.01 5.95L1.01 11.94L0.14 11.94L0.14 12.17L4.70 12.17L4.70 11.94L3.65 11.94L3.65 5.95L4.70 5.95L4.70 5.73L4.02 5.73C2.84 5.73 1.72 5.38 1.72 3.99C1.72 3.07 2.45 2.48 3.16 2.48C3.77 2.48 4.38 2.93 4.38 3.64C4.38 3.77 4.35 3.92 4.23 3.92C4.07 3.92 4.10 3.75 4.09 3.60C4.05 3.23 3.77 2.83 3.16 2.83C2.55 2.83 2.14 3.36 2.14 3.91C2.14 4.49 2.66 5.05 3.32 5.05C4.17 5.05 4.65 4.37 4.65 3.67C4.65 2.94 4.06 2.23 3.16 2.23C1.50 2.23 1.01 3.88 1.01 4.97ZM5.94 5.95L5.94 11.94L5.07 11.94L5.07 12.17L9.45 12.17L9.45 11.94L8.58 11.94L8.58 5.46C7.64 5.66 6.75 5.73 5.78 5.73L4.94 5.73L4.94 5.95ZM5.94 3.56C5.94 4.28 6.52 4.87 7.25 4.87C8.01 4.87 8.58 4.28 8.58 3.56C8.58 2.80 8.01 2.23 7.25 2.23C6.52 2.23 5.94 2.80 5.94 3.56ZM10.72 5.95L10.72 11.94L9.86 11.94L9.86 12.17L13.31 12.17L13.31 9.56C13.31 8.13 13.59 6.22 14.31 6.22C14.94 6.22 14.99 7.29 14.99 8.93L14.99 11.94L14.13 11.94L14.13 12.17L18.45 12.17L18.45 11.94L17.58 11.94L17.58 8.34C17.58 6.65 17.09 5.46 15.40 5.46C14.42 5.46 13.80 5.92 13.44 6.83L13.37 6.83L13.37 5.46C12.43 5.66 11.54 5.73 10.57 5.73L9.73 5.73L9.73 5.95ZM23.25 12.10C22.05 12.10 21.77 11.06 21.77 9.51L22.69 9.51C24.32 9.51 25.77 9.06 25.77 7.59C25.77 5.99 24.18 5.46 22.57 5.46C20.34 5.46 18.93 6.76 18.93 8.95C18.93 11.26 20.38 12.43 22.83 12.43C24.50 12.43 25.54 11.49 25.80 10.00L25.55 9.95L25.52 10.08C25.27 11.31 24.36 12.10 23.25 12.10ZM21.76 8.25C21.76 6.08 22.05 5.71 22.57 5.71C22.95 5.71 23.23 6.09 23.23 7.57C23.23 8.60 22.99 9.25 22.11 9.25L21.76 9.25ZM29.79 6.59L29.79 5.46C28.85 5.66 27.96 5.73 26.99 5.73L26.15 5.73L26.15 5.95L27.15 5.95L27.15 11.94L26.28 11.94L26.28 12.17L30.79 12.17L30.79 11.94L29.74 11.94L29.74 9.16C29.74 6.94 30.28 5.71 31.46 5.71C31.98 5.71 32.28 5.99 32.41 6.16C32.47 6.24 32.49 6.30 32.49 6.37C32.49 6.45 32.44 6.50 32.37 6.50C32.27 6.50 32.23 6.38 32.14 6.29C32.06 6.19 31.85 6.01 31.53 6.01C30.98 6.01 30.60 6.44 30.60 7C30.60 7.63 31.09 8.05 31.70 8.05C32.45 8.05 32.89 7.46 32.89 6.79C32.89 6.06 32.28 5.46 31.44 5.46C30.69 5.46 30.14 5.95 29.86 6.59ZM38.09 5.46C37.42 5.46 36.89 5.94 36.89 6.65C36.89 7.24 37.34 7.73 37.94 7.73C38.49 7.73 38.93 7.35 38.93 6.75C38.93 6.44 38.75 6.17 38.46 6.03C38.36 5.99 38.33 5.96 38.33 5.89C38.33 5.82 38.39 5.77 38.46 5.77C38.60 5.77 38.84 5.92 38.92 6.01C39.31 6.34 39.48 6.89 39.48 7.50C39.48 8.19 39.37 8.81 39.16 9.28C38.77 10.15 38.33 10.65 37.76 10.65C37.20 10.65 36.20 9.59 36.20 6.65C36.20 6.10 36.23 5.46 36.23 5.46C35.29 5.66 34.29 5.73 33.32 5.73L32.48 5.73L32.48 5.95L33.49 5.95L33.49 6.17C33.49 9.21 33.95 11.13 36.40 11.93C35.78 12.42 35.21 12.98 35.21 13.90C35.21 14.87 35.90 15.46 36.71 15.46C37.38 15.46 37.93 15.01 37.93 14.24C37.93 13.58 37.41 13.15 36.82 13.15C36.23 13.15 35.87 13.62 35.87 14.08C35.87 14.36 36.02 14.69 36.30 14.87C36.37 14.91 36.41 14.94 36.41 15.01C36.41 15.06 36.37 15.13 36.29 15.13C36.25 15.13 36.18 15.11 36.13 15.08C35.81 14.90 35.46 14.59 35.46 13.87C35.46 12.47 37.31 11.73 38.30 10.88C39.28 10.04 39.73 8.86 39.73 7.55C39.73 6.43 39.23 5.46 38.09 5.46Z"></path></g><!----><!----></svg>